<svg id="Layer_1" enable-background="new 0 0 512 512" height="512" viewBox="0 0 512 512" width="512" xmlns="http://www.w3.org/2000/svg"><g><path d="m140.249 482.973c3.864 2.075 7.792 4.044 11.776 5.914l207.975-.011c3.976-1.867 7.896-3.832 11.752-5.903l64.103-49.63c40.428-43.69 65.147-102.126 65.147-166.344 0-135.31-109.691-245.001-245.001-245.001s-245.002 109.691-245.002 245.001c0 64.218 24.719 122.655 65.147 166.344z" fill="#50dd89"/><path d="m90.222 344.641c-.443 1.523-.869 3.063-1.269 4.625-4.662 18.181-9.025 49.651-12.808 84.078 18.397 19.881 40.043 36.708 64.103 49.63 2.289-14.035 4.66-28.436 7.03-42.626-4.04-6.28-8.186-12.496-12.45-18.635-14.532-20.925-30.589-47.093-44.606-77.072z" fill="#ffc839"/><path d="m104.823 459.778c11.081 8.703 22.924 16.481 35.425 23.195 2.289-14.035 4.66-28.436 7.03-42.626-4.04-6.28-8.186-12.496-12.45-18.635-5.06-7.286-10.306-15.221-15.585-23.717l-2.312-.189c.001 0-9.638 26.38-12.108 61.972z" fill="#fca027"/><path d="m435.854 433.343c-3.782-34.427-8.146-65.897-12.808-84.078-.4-1.562-.827-3.101-1.27-4.625-14.016 29.979-30.073 56.147-44.606 77.072-4.264 6.14-8.41 12.355-12.45 18.635 2.37 14.19 4.741 28.591 7.03 42.626 24.062-12.922 45.708-29.749 64.104-49.63z" fill="#ffc839"/><path d="m393.873 399.72-1.087-1.771c-5.289 8.514-10.544 16.464-15.614 23.763-4.264 6.14-8.41 12.355-12.45 18.635 2.37 14.19 4.741 28.591 7.03 42.626 11.487-6.169 22.417-13.239 32.712-21.096-2.763-28.737-10.591-62.157-10.591-62.157z" fill="#fca027"/><path d="m211.697 225.547h88.606s7.206 3.92 4.413 12.453c-3.051 9.319-36.25 50.75-36.25 50.75h-26.75l-36.815-49.605s-.285-8.676 6.796-13.598z" fill="#306099"/><g><path d="m212.094 244.875c9.678 9.679 24.815 31.431 30.171 39.278 1.237 1.813 3.286 2.892 5.481 2.892h16.506c2.195 0 4.244-1.079 5.481-2.892 5.356-7.847 20.493-29.6 30.172-39.278 2.16-2.16 3.587-4.169 4.489-6.015-6.816-7.857-8.611-21.486-8.944-31.162-3.985 4.642-8.167 8.524-12.163 11.627-7.786 6.046-17.393 9.33-27.288 9.33s-19.503-3.284-27.288-9.33c-3.996-3.103-8.178-6.986-12.163-11.627-.333 9.675-2.128 23.304-8.943 31.161.902 1.846 2.329 3.856 4.489 6.016z" fill="#fcad6d"/></g><path d="m255.999 236.506-4.057-8.042c-8.443-.77-16.515-3.924-23.232-9.139-3.996-3.103-8.178-6.986-12.163-11.627-.333 9.675-2.128 23.304-8.943 31.161.902 1.846 2.329 3.856 4.489 6.016 9.365 9.365 23.839 30.032 29.619 38.471.366-.29.691-.6.961-.938 14.676-18.342 13.326-45.902 13.326-45.902z" fill="#fd995b"/><path d="m287.608 255.102c-.245.359-.484.708-.714 1.045-2.783 4.077-7.393 6.505-12.329 6.505-12.986 0-24.144 0-37.13 0-4.937 0-9.546-2.428-12.329-6.505-.23-.336-.469-.686-.714-1.045h-3.358c8.349 10.4 17.354 23.37 21.232 29.051 1.237 1.813 3.286 2.892 5.481 2.892h16.506c2.195 0 4.244-1.079 5.481-2.892 3.878-5.682 12.883-18.651 21.232-29.051z" fill="#543e5b"/><path d="m237.435 262.652c-4.937 0-9.546-2.428-12.329-6.505-.229-.336-.468-.686-.714-1.045h-3.358c7.982 9.943 16.551 22.218 20.679 28.244.366-.29.691-.6.961-.938 4.821-6.026 7.905-13.044 9.883-19.756-4.903 0-9.861 0-15.122 0z" fill="#37253f"/><path d="m140.971 343.696c-1.73-21.407-1.722-45.246 1.848-69.648.656-4.483 2.477-8.623 5.177-12.086-.438-.639-.691-.942-.691-.942s-42.858 30.635-57.897 86.536c9.15 19.229 19.103 36.835 28.898 52.449 8.462-30.131 17.101-47.352 22.665-56.309z" fill="#d3dcfb"/><path d="m151.282 416.586c-1.245-11.183-2.896-22.327-4.982-33.406-2.336-12.404-4.406-26.721-5.539-42.25-5.248 7.764-14.596 24.717-23.829 56.876 5.32 8.57 10.606 16.565 15.705 23.906 4.878 7.023 9.604 14.144 14.189 21.35 1.492-8.952 2.985-17.829 4.456-26.476z" fill="#37253f"/><path d="m370.677 347.745c5.691 10.116 13.516 27.414 21.111 55.277 10.405-16.35 21.06-34.987 30.804-55.466-15.038-55.901-57.897-86.536-57.897-86.536s-.253.302-.692.942c2.7 3.463 4.521 7.603 5.177 12.086 3.797 25.953 3.564 51.267 1.497 73.697z" fill="#e9efff"/><path d="m393.872 399.72c-8.553-30.37-17.276-47.565-22.813-56.389-1.165 14.606-3.144 28.086-5.359 39.849-2.087 11.078-3.738 22.222-4.982 33.406 1.471 8.647 2.964 17.524 4.457 26.476 4.585-7.206 9.311-14.327 14.189-21.35 4.716-6.79 9.593-14.146 14.508-21.992z" fill="#543e5b"/><g fill="#6c5475"><path d="m298.598 244.3c-8.107 8.107-20.156 24.938-26.643 34.288v232.881c12.936-.832 25.599-2.661 37.911-5.424v-274.37c-4.796-3.677-9.563-6.128-9.563-6.128s9.863 7.184-1.705 18.753z"/><path d="m211.697 225.547s-4.767 2.451-9.564 6.128v274.37c12.312 2.763 24.975 4.592 37.911 5.424v-232.882c-6.488-9.35-18.536-26.181-26.643-34.287-11.568-11.569-1.704-18.753-1.704-18.753z"/><path d="m355.234 254.044c-3.716-1.611-8.334-3.768-13.457-6.005v248.51c6.198-2.317 12.274-4.88 18.222-7.673-1.795-35.377.6-70.854 7.162-105.696 6.653-35.326 8.724-73.284 3.481-109.133-1.3-8.884-7.169-16.431-15.408-20.003z"/></g><path d="m141.358 274.048c-12.423 84.935 15.812 118.166 10.667 214.84 5.94 2.788 12.008 5.347 18.197 7.661v-248.51c-5.123 2.236-9.74 4.393-13.456 6.005-8.239 3.572-14.108 11.119-15.408 20.004z" fill="#543e5b"/><path d="m269.325 282.408c-1.199 1.757-3.19 2.806-5.318 2.806h-16.015c-2.128 0-4.119-1.049-5.318-2.806-.148-.218-.322-.47-.486-.709l-3.645 2.18v227.496c5.768.405 11.587.625 17.457.625s11.689-.22 17.455-.626v-227.499l-3.644-2.177c-.164.24-.337.492-.486.71z" fill="#e9efff"/><path d="m185.233 270.954c-5.081 1.768-11.567 3.806-16.511 5.792v219.233c11.263 4.296 22.922 7.782 34.911 10.393v-246.927c-1.399 1.006-2.844 2.13-4.214 3.341-4.122 3.648-8.988 6.359-14.186 8.168z" fill="#e9efff"/><path d="m203.633 295.727-1.821-34.911c-.807.628-1.612 1.28-2.392 1.971-4.122 3.648-8.988 6.358-14.186 8.167-5.081 1.768-11.567 3.806-16.511 5.792v219.233c11.263 4.296 22.922 7.782 34.911 10.393l-6.148-10.697c-7.409-12.891-11.308-27.499-11.308-42.367v-137.641c-.001-19 17.455-19.94 17.455-19.94z" fill="#d3dcfb"/><path d="m312.581 262.786c-1.369-1.212-2.814-2.336-4.214-3.342v246.927c11.989-2.611 23.648-6.098 34.911-10.393v-219.233c-4.944-1.985-11.43-4.023-16.511-5.791-5.198-1.809-10.064-4.52-14.186-8.168z" fill="#e9efff"/><path d="m199.419 233.899c-4.122 3.648-8.988 6.358-14.186 8.167-5.801 2.019-11.434 4.389-16.511 6.631l-2 30.888c5.077-2.242 12.711-4.612 18.511-6.631 5.198-1.809 10.064-4.52 14.186-8.167 1.369-1.212 2.814-2.335 4.214-3.341v-30.888c-1.399 1.006-2.845 2.129-4.214 3.341z" fill="#543e5b"/><path d="m326.767 242.066c-5.198-1.809-10.064-4.52-14.186-8.167-1.369-1.212-2.814-2.336-4.214-3.342v30.888c1.4 1.006 2.845 2.13 4.214 3.342 4.122 3.648 8.988 6.358 14.186 8.167 5.801 2.019 13.433 4.389 18.511 6.631l-2-30.887c-5.078-2.243-10.71-4.613-16.511-6.632z" fill="#6c5475"/><path d="m300.303 225.547s11.834 3.871 22.61 11.867c4.033 2.992 5.491 8.365 3.641 13.033l-17.271 43.583c-2.057 5.192-8.277 7.305-13.071 4.441l-26.887-16.063c.001 0 27.628-39.2 30.978-56.861z" fill="#997da8"/><path d="m211.697 225.547s-11.806 3.871-22.582 11.867c-4.033 2.992-5.492 8.365-3.641 13.033l17.27 43.583c2.058 5.192 8.277 7.305 13.071 4.441l26.859-16.063s-27.626-39.2-30.977-56.861z" fill="#876d93"/><path d="m285.726 367.363v45.046c0 2.367 1.267 4.552 3.32 5.728l22.388 12.824c2.032 1.164 4.529 1.164 6.562 0l22.389-12.824c2.053-1.176 3.32-3.361 3.32-5.728v-45.046z" fill="#997da8"/><path d="m329.967 418.137c-2.053-1.176-3.32-3.362-3.32-5.728v-31.187c0-7.654 6.205-13.859 13.859-13.859h-54.78v45.046c0 2.367 1.267 4.552 3.32 5.728l22.388 12.824c2.032 1.164 4.529 1.164 6.562 0l17.18-9.84z" fill="#876d93"/><path d="m344.243 369.363h-59.054c-.834 0-1.516-.682-1.516-1.516v-13.395c0-.834.682-1.516 1.516-1.516h59.054c.834 0 1.516.682 1.516 1.516v13.395c0 .834-.682 1.516-1.516 1.516z" fill="#997da8"/><path d="m345.759 367.847v-13.395c0-.834-.682-1.516-1.516-1.516h-9.382c-4.518 0-8.214 3.696-8.214 8.214s3.696 8.214 8.214 8.214h9.382c.834-.001 1.516-.683 1.516-1.517z" fill="#a98bbc"/><path d="m92.238 84.784c-49.87 44.849-81.239 109.865-81.239 182.215 0 23.099 3.211 45.446 9.188 66.632 14.203-1.511 27.241-6.972 33.48-20.298 37.333-79.74 82.391-48.79 92.374-122.793 6.492-48.133-27.264-84.836-53.803-105.756z" fill="#70f2a4"/><path d="m419.763 84.784c49.869 44.849 81.238 109.865 81.238 182.215 0 23.099-3.211 45.446-9.188 66.632-14.203-1.511-27.241-6.972-33.48-20.298-37.333-79.74-82.391-48.79-92.374-122.793-6.492-48.133 27.264-84.836 53.804-105.756z" fill="#70f2a4"/><g><path d="m317.701 144.847c.957-4.803 2.231-13.208 2.867-25.974.512-10.269-7.649-18.853-17.925-18.853h-93.289c-10.281 0-18.436 8.59-17.925 18.853.636 12.766 1.91 21.172 2.867 25.974.151.76.048 1.496-.216 2.156l2.18 8.176c0 32.848 17.535 55.175 32.45 66.758 7.785 6.046 17.393 9.33 27.288 9.33s19.503-3.284 27.288-9.33c14.915-11.582 32.45-33.909 32.45-66.758l2.18-8.173c-.262-.661-.367-1.397-.215-2.159z" fill="#f9ba8f"/></g><path d="m191.43 118.872c.636 12.766 1.91 21.172 2.867 25.974.151.76.048 1.496-.216 2.156l2.18 8.176c0 32.848 17.535 55.175 32.45 66.758 7.785 6.046 17.393 9.33 27.288 9.33v-16.678c-21.263-21.262-14.387-74.088-14.387-91.088 0-12.178 7.911-18.2 12.399-20.636 1.037-.563 1.473-1.796 1.111-2.845h-45.767c-10.282 0-18.436 8.59-17.925 18.853z" fill="#fcad6d"/><path d="m289.091 211.277c-9.441 7.332-21.092 11.314-33.092 11.314-11.999 0-23.65-3.982-33.092-11.314-5.367-4.168-11.012-9.485-16.299-15.942-.735-.898-2.129.028-1.586 1.054 6.476 12.249 15.208 21.499 23.205 27.709 7.923 6.153 17.701 9.495 27.772 9.495s19.848-3.342 27.772-9.495c7.997-6.21 16.729-15.46 23.205-27.709.542-1.026-.851-1.952-1.586-1.054-5.287 6.457-10.932 11.775-16.299 15.942z" fill="#e9efff"/><path d="m330.653 121c-3.086-2.828-9.233-1.395-11.891.337.582 3.626.616 7.335.112 10.998l-3.137 22.844c0 1.842-.058 3.648-.165 5.423 7.648 2.307 11.447-4.559 12.087-9.271.275-2.028.726-4.028 1.351-5.978 2.035-6.354 9.375-17.267 1.643-24.353z" fill="#fcad6d"/><path d="m181.346 121c3.086-2.828 9.233-1.395 11.891.337-.582 3.626-.615 7.335-.112 10.998l3.136 22.844c0 1.842.058 3.648.165 5.423-7.648 2.307-11.447-4.559-12.087-9.271-.275-2.028-.726-4.028-1.351-5.978-2.034-6.354-9.373-17.267-1.642-24.353z" fill="#fd995b"/><path d="m283.901 7.118c-3.493-1.503-7.186-2.463-10.953-2.857.331.832.35 1.788-.023 2.672l-6.219 14.751c-1.82 4.317-6.022 7.106-10.707 7.106s-8.887-2.789-10.707-7.106l-6.219-14.751c-.373-.885-.354-1.841-.023-2.672-3.767.395-7.46 1.354-10.953 2.857l-6.997 3.012 20.04 47.539h29.719l20.04-47.539z" fill="#543e5b"/><path d="m274.982 44.684c-17.964 0-14.936-15.893-14.936-15.893l-.303-.625c-1.185.402-2.444.624-3.743.624-4.685 0-8.887-2.789-10.707-7.106l-6.219-14.751c-.373-.885-.354-1.841-.023-2.672-3.767.395-7.46 1.354-10.953 2.857l-6.998 3.012 20.04 47.539h29.719l5.448-12.925c-.417-.037-.854-.06-1.325-.06z" fill="#37253f"/><path d="m315.071 16.425c-1.919.115-4.05.538-6.19 1.532-9.991 4.639-16.322 21.342-8.904 39.713 26.87-.006 26.133-.022 27.08.075.285.065 3.897.186 7.771 2.733-1.449-19.613-11.811-34.982-19.757-44.053z" fill="#876d93"/><path d="m203.118 17.957c-2.141-.994-4.272-1.417-6.191-1.532-7.945 9.071-18.308 24.441-19.757 44.054 4.047-2.661 8.411-2.772 8.459-2.782.646-.043-.411-.027 26.391-.025 7.414-18.368 1.088-35.076-8.902-39.715z" fill="#876d93"/><path d="m216.659 7.286h-5.368c-3.455 0-6.768 1.352-9.251 3.755-1.614 1.562-3.583 3.597-5.697 6.058 5.317.155 12.55 2.662 16.486 13.866 3.491 9.937 1.309 19.659-1.593 26.707 7.494.001 17.228 0 29.904-.002.924-.588 1.433-.924 1.433-.924l-21.473-46.616c-.799-1.733-2.533-2.844-4.441-2.844z" fill="#997da8"/><path d="m315.655 17.099c-2.114-2.461-4.083-4.496-5.697-6.058-2.483-2.403-5.795-3.755-9.251-3.755h-5.368c-1.908 0-3.643 1.11-4.441 2.844l-21.473 46.616s.509.336 1.433.924c12.652.003 22.388.002 29.904 0-2.902-7.048-5.083-16.769-1.592-26.705 3.936-11.204 11.169-13.71 16.485-13.866z" fill="#997da8"/><g><path d="m329.139 117.94-2.877 24.534c.219.012.44.018.662.018 6.836 0 12.377-5.541 12.377-12.377-.001-6.078-4.385-11.13-10.162-12.175z" fill="#bec8f7"/></g><g><path d="m182.86 117.94c-5.777 1.045-10.161 6.097-10.161 12.175 0 6.836 5.541 12.377 12.377 12.377.222 0 .443-.006.662-.018z" fill="#bec8f7"/></g><g><path d="m336.309 88.321c-4.516 0-43.265 0-81.62 0 .208.743.047 1.58-.487 2.216-1.615 1.923-3.307 5.215-.434 8.811.505.632.593 1.437.361 2.149h48.515c9.421 0 16.918 7.892 16.449 17.302-.62 12.43-1.837 20.721-2.841 25.76-.655 3.289 1.86 6.353 5.214 6.353 2.697 0 4.966-2.019 5.28-4.697l3.345-28.524c.318-2.711 1.541-5.236 3.471-7.167 1.526-1.526 2.618-3.431 3.162-5.52l5.327-20.438c-.977 2.205-3.186 3.755-5.742 3.755z" fill="#e9efff"/></g><path d="m169.947 84.566 5.327 20.438c.544 2.088 1.636 3.994 3.162 5.52 1.93 1.93 3.153 4.455 3.471 7.167l3.345 28.524c.314 2.678 2.584 4.697 5.28 4.697 3.354 0 5.869-3.063 5.214-6.353-1.004-5.039-2.221-13.33-2.841-25.76-.47-9.41 7.028-17.302 16.449-17.302h45.774c.232-.711.143-1.517-.361-2.149-2.873-3.596-1.181-6.889.434-8.811.534-.636.695-1.473.487-2.216-37.819 0-75.546 0-79.998 0-2.556 0-4.765-1.55-5.743-3.755z" fill="#d3dcfb"/><path d="m326.442 56.776c-.459 8.901-7.845 16.001-16.857 16.001h-107.17c-9.013 0-16.398-7.1-16.858-16.001-8.969.513-16.148 8.007-16.148 17.098v8.627c0 3.455 2.826 6.281 6.281 6.281h160.619c3.455 0 6.281-2.827 6.281-6.281v-8.627c0-9.091-7.179-16.585-16.148-17.098z" fill="#876d93"/><path d="m254.916 75.026c.661-.583.934-1.445.789-2.249h-53.29c-9.013 0-16.398-7.1-16.858-16.001-8.969.513-16.148 8.007-16.148 17.098v8.627c0 3.455 2.826 6.281 6.281 6.281h80.081c-.042-.581-.293-1.143-.764-1.556-6.065-5.323-2.691-9.91-.091-12.2z" fill="#876d93"/><path d="m254.916 75.026c.661-.583.934-1.445.789-2.249h-53.29c-9.013 0-16.398-7.1-16.858-16.001-8.969.513-16.148 8.007-16.148 17.098v8.627c0 3.455 2.826 6.281 6.281 6.281h80.081c-.042-.581-.293-1.143-.764-1.556-6.065-5.323-2.691-9.91-.091-12.2z" fill="#6c5475"/><path d="m325.461 56.746h-138.924c-.564 0-1.121.029-1.671.083.489 9.236 8.195 16.641 17.548 16.641h107.17c9.352 0 17.059-7.404 17.548-16.641-.55-.054-1.107-.083-1.671-.083z" fill="#6c5475"/><path d="m255.825 56.746h-69.288c-.564 0-1.121.029-1.671.083.489 9.236 8.195 16.641 17.548 16.641h53.314c.075-.639-.1-1.301-.562-1.82-5.167-5.807-2.242-10.734.015-13.194.447-.487.658-1.103.644-1.71z" fill="#876d93"/><ellipse cx="255.999" cy="225.547" fill="#6c5475" rx="19.686" ry="10.959"/><path d="m268.634 221.621c0 3.885-5.657 7.034-12.634 7.034-6.978 0-12.634-3.149-12.634-7.034 0-3.884 5.657-7.033 12.634-7.033 6.978 0 12.634 3.149 12.634 7.033z" fill="#876d93"/><path d="m271.342 1.685c-2.583-1.112-5.365-1.685-8.177-1.685h-14.331c-2.812 0-5.595.573-8.178 1.685-2.13.917-3.121 3.38-2.221 5.517l6.219 14.752c1.924 4.563 6.394 7.529 11.345 7.529s9.422-2.967 11.345-7.529l6.219-14.752c.901-2.137-.091-4.6-2.221-5.517z" fill="#6c5475"/><path d="m271.342 1.685c-2.583-1.112-5.365-1.685-8.177-1.685h-8.933c-.804.738-1.107 1.92-.659 2.982l3.913 9.283c1.211 2.871 4.023 4.738 7.139 4.738 2.381 0 4.579-1.096 6.026-2.891l2.913-6.909c.9-2.138-.092-4.601-2.222-5.518z" fill="#876d93"/><path d="m309.958 11.041c-2.483-2.403-5.795-3.755-9.251-3.755h-5.368c-1.908 0-3.643 1.11-4.441 2.844l-8.672 18.826c1.616 3.344 6.136 9.726 15.942 5.499.001 0 .003-.001.004-.002.261-1.157.587-2.321.997-3.488 3.936-11.204 11.169-13.71 16.485-13.866-2.113-2.461-4.081-4.496-5.696-6.058z" fill="#a98bbc"/><path d="m202.04 11.041c2.483-2.403 5.795-3.755 9.251-3.755h5.368c1.908 0 3.642 1.11 4.441 2.844l8.672 18.826c-1.616 3.344-6.136 9.726-15.942 5.499-.001 0-.003-.001-.004-.002-.262-1.157-.587-2.321-.997-3.488-3.936-11.204-11.169-13.71-16.485-13.866 2.113-2.461 4.082-4.496 5.696-6.058z" fill="#a98bbc"/><path d="m255.825 56.746h-69.288c-.564 0-1.121.029-1.671.083.489 9.236 8.195 16.641 17.548 16.641h53.314c.075-.639-.1-1.301-.562-1.82-5.167-5.807-2.242-10.734.015-13.194.447-.487.658-1.103.644-1.71z" fill="#543e5b"/><path d="m284.744 258.642c-7.748 12.881-15.418 23.766-15.418 23.766l26.887 16.063c4.794 2.864 11.014.752 13.071-4.441l9.83-24.806c-24.768 11.189-34.37-10.581-34.37-10.582z" fill="#876d93"/></g></svg>